<?xml version="1.0" encoding="UTF-8"?>
<!DOCTYPE svg PUBLIC "-//W3C//DTD SVG 1.1//EN" "http://www.w3.org/Graphics/SVG/1.1/DTD/svg11.dtd">
<!-- Creator: CorelDRAW -->
<svg xmlns="http://www.w3.org/2000/svg" xml:space="preserve" width="6.82666in" height="6.82666in" style="shape-rendering:geometricPrecision; text-rendering:geometricPrecision; image-rendering:optimizeQuality; fill-rule:evenodd; clip-rule:evenodd"
viewBox="0 0 6.82666 6.82666"
 xmlns:xlink="http://www.w3.org/1999/xlink">
 <defs>
  <style type="text/css">
   <![CDATA[
    .fil2 {fill:none}
    .fil4 {fill:#2E7D32}
    .fil3 {fill:#388E3C}
    .fil7 {fill:#64B5F6}
    .fil1 {fill:#B0BEC5}
    .fil6 {fill:#BBDEFB}
    .fil0 {fill:#CFD8DC}
    .fil8 {fill:#ECEFF1}
    .fil9 {fill:white}
    .fil5 {fill:#4E342E;fill-rule:nonzero}
   ]]>
  </style>
   <clipPath id="id0">
    <path d="M3.41333 -3.93701e-006c1.88513,0 3.41333,1.5282 3.41333,3.41333 0,1.88513 -1.5282,3.41333 -3.41333,3.41333 -1.88513,0 -3.41333,-1.5282 -3.41333,-3.41333 0,-1.88513 1.5282,-3.41333 3.41333,-3.41333z"/>
   </clipPath>
 </defs>
 <g id="Layer_x0020_1">
  <metadata id="CorelCorpID_0Corel-Layer"/>
  <path class="fil0" d="M3.41333 -3.93701e-006c1.88513,0 3.41333,1.5282 3.41333,3.41333 0,1.88513 -1.5282,3.41333 -3.41333,3.41333 -1.88513,0 -3.41333,-1.5282 -3.41333,-3.41333 0,-1.88513 1.5282,-3.41333 3.41333,-3.41333z"/>
  <g style="clip-path:url(#id0)">
   <g id="_357802856">
    <g>
     <polygon id="_3548806401" class="fil1" points="3.88049,3.12227 7.66676,6.90854 7.67786,6.93759 7.68907,6.96659 7.70037,6.99553 7.71178,7.02442 7.7233,7.05324 7.73492,7.08201 7.74665,7.11072 7.75849,7.13938 7.77045,7.16797 7.78253,7.19651 7.79472,7.22499 7.80704,7.25341 7.81948,7.28177 7.83204,7.31008 7.84473,7.33832 7.85756,7.36651 7.87051,7.39463 7.88359,7.4227 7.89682,7.45071 7.91019,7.47865 7.92369,7.50654 7.93734,7.53437 7.95113,7.56214 7.96507,7.58984 7.97916,7.61749 7.9934,7.64507 8.0078,7.6726 8.02235,7.70006 8.03706,7.72746 8.05194,7.75481 8.06697,7.78209 8.08217,7.8093 4.29591,4.02303 4.2807,3.99581 4.26567,3.96854 4.2508,3.94119 4.23609,3.91379 4.22153,3.88633 4.20713,3.8588 4.19289,3.83122 4.1788,3.80357 4.16486,3.77587 4.15107,3.7481 4.13742,3.72027 4.12392,3.69238 4.11056,3.66444 4.09733,3.63643 4.08424,3.60836 4.07129,3.58024 4.05846,3.55205 4.04577,3.52381 4.03321,3.4955 4.02077,3.46714 4.00845,3.43872 3.99626,3.41024 3.98419,3.3817 3.97222,3.35311 3.96038,3.32445 3.94865,3.29574 3.93703,3.26697 3.92551,3.23815 3.9141,3.20926 3.9028,3.18032 3.89159,3.15132 "/>
     <polygon id="_354880856" class="fil1" points="4.29591,4.02303 8.08217,7.8093 8.13294,7.8996 4.34667,4.11333 "/>
     <polygon id="_354880976" class="fil1" points="4.34667,4.11333 8.13294,7.8996 8.02162,7.8996 4.23535,4.11333 "/>
     <polygon id="_354881648" class="fil1" points="4.23535,4.11333 8.02162,7.8996 7.95989,7.8996 4.17362,4.11333 "/>
     <polygon id="_354881480" class="fil1" points="4.17362,4.11333 7.95989,7.8996 7.96678,7.91589 7.97371,7.93217 7.98068,7.94844 7.98768,7.96469 7.99471,7.98092 8.00178,7.99713 8.00888,8.01333 8.01602,8.02952 8.02319,8.04568 8.03039,8.06183 8.03764,8.07797 8.04491,8.09408 8.05223,8.11019 8.05958,8.12627 8.06697,8.14234 8.07439,8.15839 8.08185,8.17443 8.08935,8.19044 8.09689,8.20645 8.10447,8.22244 8.11208,8.23841 8.11973,8.25436 8.12743,8.2703 8.13515,8.28622 8.14292,8.30212 8.15073,8.318 8.15858,8.33387 8.16647,8.34973 8.1744,8.36557 8.18237,8.38139 8.19037,8.39719 8.19843,8.41298 4.41216,4.6267 4.40411,4.61092 4.3961,4.59511 4.38813,4.5793 4.3802,4.56346 4.37231,4.5476 4.36446,4.53173 4.35665,4.51585 4.34889,4.49994 4.34116,4.48402 4.33346,4.46809 4.32581,4.45213 4.3182,4.43617 4.31063,4.42018 4.30309,4.40417 4.29559,4.38815 4.28813,4.37212 4.2807,4.35607 4.27331,4.34 4.26596,4.32391 4.25865,4.30781 4.25137,4.2917 4.24413,4.27556 4.23692,4.25941 4.22975,4.24324 4.22261,4.22706 4.21551,4.21086 4.20844,4.19465 4.20141,4.17841 4.19441,4.16217 4.18744,4.1459 4.18052,4.12962 "/>
     <polygon id="_354881000" class="fil1" points="4.41216,4.6267 8.19843,8.41298 8.25587,8.52528 4.46961,4.73901 "/>
     <polygon id="_354881552" class="fil1" points="4.46961,4.73901 8.25587,8.52528 8.1299,8.52528 4.34363,4.73901 "/>
     <polygon id="_354880928" class="fil1" points="4.34363,4.73901 8.1299,8.52528 7.96428,8.52528 4.17801,4.73901 "/>
     <polygon id="_354882248" class="fil1" points="4.17801,4.73901 7.96428,8.52528 7.25013,8.52528 3.46386,4.73901 "/>
     <polygon id="_354882320" class="fil1" points="2.65554,4.11333 6.44181,7.8996 6.3788,7.8996 2.59253,4.11333 "/>
     <polygon id="_354882200" class="fil1" points="2.59253,4.11333 6.3788,7.8996 6.26626,7.8996 2.47999,4.11333 "/>
     <polygon id="_354881744" class="fil1" points="3.30929,4.73901 7.09556,8.52528 6.27068,8.52528 2.48441,4.73901 "/>
     <polygon id="_354882224" class="fil1" points="2.48441,4.73901 6.27068,8.52528 6.14332,8.52528 2.35705,4.73901 "/>
     <polygon id="_354882152" class="fil1" points="3.46386,5.28 7.25013,9.06627 7.09556,9.06627 3.30929,5.28 "/>
     <polygon id="_354881912" class="fil1" points="3.46386,4.73901 7.25013,8.52528 7.25013,9.06627 3.46386,5.28 "/>
     <polygon id="_354881936" class="fil1" points="3.3839,1.54666 7.17017,5.33293 7.17187,5.33949 3.3856,1.55322 "/>
     <polygon id="_354882368" class="fil1" points="3.38733,1.54666 7.17359,5.33293 7.1996,5.42449 3.41333,1.63822 "/>
     <polygon id="_354882272" class="fil1" points="3.41333,1.63822 7.1996,5.42449 7.20222,5.43371 3.41595,1.64744 "/>
     <polygon id="_354881768" class="fil1" points="3.41595,1.64744 7.20222,5.43371 7.24184,5.57322 3.45557,1.78695 "/>
     <polygon id="_354883184" class="fil1" points="3.45557,1.78695 7.24184,5.57322 7.25244,5.61052 7.26306,5.64775 7.27367,5.68491 7.2843,5.722 7.29494,5.75902 7.3056,5.79598 7.31628,5.83286 7.32699,5.86968 7.33773,5.90643 7.3485,5.94311 7.35932,5.97972 7.37017,6.01626 7.38107,6.05273 7.39202,6.08914 7.40302,6.12547 7.41409,6.16174 7.4252,6.19794 7.43639,6.23407 7.44765,6.27013 7.45897,6.30612 7.47038,6.34204 7.48186,6.3779 7.49343,6.41368 7.50508,6.4494 7.51683,6.48505 7.52867,6.52063 7.54061,6.55613 7.55266,6.59157 7.56481,6.62695 7.57707,6.66225 7.58944,6.69748 7.60194,6.73265 3.81567,2.94638 3.80318,2.91121 3.7908,2.87598 3.77854,2.84068 3.76639,2.8053 3.75435,2.76986 3.74241,2.73435 3.73056,2.69878 3.71881,2.66313 3.70716,2.62741 3.69559,2.59163 3.68411,2.55577 3.6727,2.51985 3.66138,2.48386 3.65012,2.4478 3.63894,2.41167 3.62782,2.37547 3.61676,2.3392 3.60575,2.30287 3.5948,2.26646 3.58391,2.22999 3.57305,2.19344 3.56224,2.15683 3.55146,2.12015 3.54072,2.08341 3.53001,2.04659 3.51933,2.0097 3.50867,1.97275 3.49803,1.93573 3.4874,1.89863 3.47679,1.86148 3.46618,1.82425 "/>
     <polygon id="_354883016" class="fil1" points="3.81567,2.94638 7.60194,6.73265 7.60392,6.73818 7.6059,6.7437 7.60788,6.74922 7.60987,6.75475 7.61186,6.76027 7.61385,6.76578 7.61584,6.7713 7.61784,6.77681 7.61984,6.78232 7.62185,6.78783 7.62385,6.79334 7.62587,6.79885 7.62788,6.80435 7.6299,6.80985 7.63192,6.81535 7.63394,6.82085 7.63597,6.82634 7.638,6.83184 7.64003,6.83733 7.64207,6.84282 7.64411,6.84831 7.64615,6.85379 7.64819,6.85928 7.65024,6.86476 7.6523,6.87024 7.65435,6.87572 7.65641,6.88119 7.65847,6.88667 7.66054,6.89214 7.66261,6.89761 7.66468,6.90307 7.66676,6.90854 3.88049,3.12227 3.87841,3.1168 3.87634,3.11133 3.87427,3.10587 3.8722,3.10039 3.87014,3.09492 3.86808,3.08944 3.86603,3.08396 3.86398,3.07848 3.86193,3.073 3.85988,3.06752 3.85784,3.06204 3.8558,3.05655 3.85376,3.05106 3.85173,3.04557 3.8497,3.04007 3.84767,3.03457 3.84565,3.02908 3.84363,3.02358 3.84161,3.01808 3.8396,3.01257 3.83759,3.00707 3.83558,3.00156 3.83357,2.99605 3.83157,2.99054 3.82957,2.98503 3.82758,2.97951 3.82559,2.974 3.8236,2.96848 3.82161,2.96295 3.81963,2.95743 3.81765,2.95191 "/>
    </g>
    <path id="_357802904" class="fil1" d="M3.88049 3.12227c0.117937,0.31022 0.252386,0.610772 0.415417,0.900764l0.0507638 0.0902953 -0.111315 0 -0.0617362 0c0.0733976,0.173913 0.152445,0.345075 0.238539,0.513378l0.0574488 0.112307 -0.125976 0 -0.165618 0 -0.714154 0 0 0.540984 -0.154571 0 0 -0.540984 -0.824874 0 -0.127362 0 0.0588346 -0.112909c0.0114409,-0.0219567 0.0227165,-0.0439055 0.0338268,-0.0658504 0.075626,-0.149319 0.143783,-0.298291 0.205831,-0.446925l-0.0630157 0 -0.112535 0 0.0519843 -0.0907756c0.386016,-0.674098 0.558709,-1.33946 0.729366,-1.99698 0.00861417,-0.0331929 0.017248,-0.0664528 0.0293504,-0.11265 0.00871654,-0.0332717 0.0192283,-0.073252 0.0328346,-0.124756l0.0257874 -0.0976142 0.0345866 -0.143886 0.00169685 0.00655512 0.00172835 -0.00655512 0.0260079 0.0915591 0.00261811 0.00922047 0.039622 0.139508c0.113102,0.398205 0.226177,0.784705 0.360098,1.15943 0.0210748,0.0589685 0.0426535,0.117598 0.064815,0.17589z"/>
   </g>
  </g>
  <path class="fil2" d="M3.41333 -3.93701e-006c1.88513,0 3.41333,1.5282 3.41333,3.41333 0,1.88513 -1.5282,3.41333 -3.41333,3.41333 -1.88513,0 -3.41333,-1.5282 -3.41333,-3.41333 0,-1.88513 1.5282,-3.41333 3.41333,-3.41333z"/>
  <path class="fil3" d="M3.41333 4.73901l-0.928921 0 -0.127362 0 0.0588346 -0.112909c0.0892913,-0.171378 0.168492,-0.342299 0.239657,-0.512776l-0.0630157 0 -0.112535 0 0.0519843 -0.0907756c0.386016,-0.674098 0.558709,-1.33946 0.729366,-1.99698 0.0148189,-0.0570945 0.029689,-0.114382 0.062185,-0.237406l0.0257874 -0.0976142 0.0345866 -0.143886 0.00169685 0.00655512 0.00172835 -0.00655512 0.0260079 0.0915591 0.00261811 0.00922047 0.039622 0.139508c0.113102,0.398205 0.226177,0.784705 0.360098,1.15943 0.133236,0.372791 0.286567,0.732173 0.480232,1.07665l0.0507638 0.0902953 -0.111315 0 -0.0617362 0c0.0733976,0.173913 0.152445,0.345075 0.238539,0.513378l0.0574488 0.112307 -0.125976 0 -0.930008 0 -0.000287402 0z"/>
  <path class="fil4" d="M3.88049 3.12227c0.117937,0.31022 0.252386,0.610776 0.415417,0.900764l0.0507638 0.0902953 -0.111315 0 -0.0617362 0c0.0733976,0.173913 0.152445,0.345075 0.238539,0.513378l0.0574488 0.112307 -0.125976 0 -0.165618 0c-0.0751969,-0.208945 -0.148783,-0.487504 -0.20578,-0.79689 -0.0571654,-0.310295 -0.087689,-0.597555 -0.0917441,-0.819854z"/>
  <path class="fil4" d="M2.44971 4.56025c0.075626,-0.149315 0.143783,-0.298287 0.205831,-0.446925l-0.0630157 0 -0.112535 0 0.0519843 -0.0907756c0.386016,-0.674098 0.558709,-1.33946 0.729366,-1.99698 0.00861417,-0.0331929 0.017248,-0.0664528 0.0293504,-0.11265 0.26052,0.647492 -0.278827,2.37104 -0.84098,2.64733z"/>
  <polygon class="fil5" points="3.46386,4.73901 3.46386,5.28 3.30929,5.28 3.30929,4.73901 "/>
  <path class="fil6" d="M3.85028 4.22933c0.0640276,0 0.115929,0.0519055 0.115929,0.115929 0,0.0640236 -0.0519016,0.115925 -0.115929,0.115925 -0.0640236,0 -0.115925,-0.0519016 -0.115925,-0.115925 0,-0.0640236 0.0519016,-0.115929 0.115925,-0.115929z"/>
  <path class="fil6" d="M2.96151 4.15938c0.0640236,0 0.115925,0.0519016 0.115925,0.115925 0,0.0640276 -0.0519016,0.115925 -0.115925,0.115925 -0.0640276,0 -0.115925,-0.0518976 -0.115925,-0.115925 0,-0.0640236 0.0518976,-0.115925 0.115925,-0.115925z"/>
  <path class="fil7" d="M3.57978 3.73431c0.0640236,0 0.115925,0.0519055 0.115925,0.115929 0,0.0640236 -0.0519016,0.115925 -0.115925,0.115925 -0.0640236,0 -0.115925,-0.0519016 -0.115925,-0.115925 0,-0.0640236 0.0519016,-0.115929 0.115925,-0.115929z"/>
  <path class="fil6" d="M3.37505 2.91103c0.0640236,0 0.115925,0.0519016 0.115925,0.115925 0,0.0640276 -0.0519016,0.115925 -0.115925,0.115925 -0.0640236,0 -0.115929,-0.0518976 -0.115929,-0.115925 0,-0.0640236 0.0519055,-0.115925 0.115929,-0.115925z"/>
  <path class="fil6" d="M3.705 3.21889c0.0322205,0 0.0583346,0.0261142 0.0583346,0.0583307 0,0.0322205 -0.0261142,0.0583346 -0.0583346,0.0583346 -0.0322165,0 -0.0583346,-0.0261142 -0.0583346,-0.0583346 0,-0.0322165 0.0261181,-0.0583307 0.0583346,-0.0583307z"/>
  <path class="fil6" d="M3.12167 3.49111c0.0322165,0 0.0583307,0.0261181 0.0583307,0.0583346 0,0.0322165 -0.0261142,0.0583346 -0.0583307,0.0583346 -0.0322205,0 -0.0583346,-0.0261181 -0.0583346,-0.0583346 0,-0.0322165 0.0261142,-0.0583346 0.0583346,-0.0583346z"/>
  <path class="fil8" d="M3.41333 2.40222c0.0429567,0 0.0777756,0.0348228 0.0777756,0.0777756 0,0.0429567 -0.0348189,0.0777756 -0.0777756,0.0777756 -0.0429567,0 -0.0777756,-0.0348189 -0.0777756,-0.0777756 0,-0.0429528 0.0348189,-0.0777756 0.0777756,-0.0777756z"/>
  <circle class="fil9" cx="3.39389" cy="4.405" r="0.0583334"/>
  <path class="fil8" d="M3.34694 1.98111c0.0366654,0 0.0663898,0.0297244 0.0663898,0.0663898 0,0.0366614 -0.0297244,0.0663858 -0.0663898,0.0663858 -0.0366614,0 -0.0663858,-0.0297244 -0.0663858,-0.0663858 0,-0.0366654 0.0297244,-0.0663898 0.0663858,-0.0663898z"/>
  <path class="fil8" d="M3.66142 2.78839c0.0222244,0 0.0402441,0.0180197 0.0402441,0.0402441 0,0.0222283 -0.0180197,0.0402441 -0.0402441,0.0402441 -0.0222283,0 -0.0402441,-0.0180157 -0.0402441,-0.0402441 0,-0.0222244 0.0180157,-0.0402441 0.0402441,-0.0402441z"/>
  <path class="fil8" d="M3.18 2.67308c0.0222283,0 0.0402441,0.0180197 0.0402441,0.0402441 0,0.0222283 -0.0180157,0.0402441 -0.0402441,0.0402441 -0.0222283,0 -0.0402441,-0.0180157 -0.0402441,-0.0402441 0,-0.0222244 0.0180157,-0.0402441 0.0402441,-0.0402441z"/>
  <path class="fil8" d="M3.34146 2.72787c0.0241732,0 0.0437677,0.0195984 0.0437677,0.0437717 0,0.0241693 -0.0195945,0.0437677 -0.0437677,0.0437677 -0.0241732,0 -0.0437677,-0.0195984 -0.0437677,-0.0437677 0,-0.0241732 0.0195945,-0.0437717 0.0437677,-0.0437717z"/>
  <path class="fil8" d="M3.43345 3.33555c0.0540709,0 0.0979016,0.0438307 0.0979016,0.0979016 0,0.0540669 -0.0438307,0.0979016 -0.0979016,0.0979016 -0.0540669,0 -0.0978976,-0.0438346 -0.0978976,-0.0979016 0,-0.0540709 0.0438307,-0.0979016 0.0978976,-0.0979016z"/>
  <path class="fil8" d="M2.92654 3.76197c0.0540669,0 0.0979016,0.0438307 0.0979016,0.0979016 0,0.0540709 -0.0438346,0.0979016 -0.0979016,0.0979016 -0.0540709,0 -0.0979016,-0.0438307 -0.0979016,-0.0979016 0,-0.0540709 0.0438307,-0.0979016 0.0979016,-0.0979016z"/>
  <path class="fil8" d="M3.25115 3.9335c0.0392913,0 0.0711457,0.0318543 0.0711457,0.0711457 0,0.0392953 -0.0318543,0.0711457 -0.0711457,0.0711457 -0.0392913,0 -0.0711457,-0.0318504 -0.0711457,-0.0711457 0,-0.0392913 0.0318543,-0.0711457 0.0711457,-0.0711457z"/>
  <path class="fil8" d="M3.94387 3.6786c0.0540669,0 0.0979016,0.0438307 0.0979016,0.0979016 0,0.0540669 -0.0438346,0.0979016 -0.0979016,0.0979016 -0.0540709,0 -0.0979016,-0.0438346 -0.0979016,-0.0979016 0,-0.0540709 0.0438307,-0.0979016 0.0979016,-0.0979016z"/>
  <path class="fil8" d="M2.71996 4.50222c0.0392913,0 0.0711457,0.0318504 0.0711457,0.0711457 0,0.0392913 -0.0318543,0.0711457 -0.0711457,0.0711457 -0.0392913,0 -0.0711457,-0.0318543 -0.0711457,-0.0711457 0,-0.0392953 0.0318543,-0.0711457 0.0711457,-0.0711457z"/>
 </g>
</svg>
